<svg xmlns="http://www.w3.org/2000/svg" width="22" height="22" viewBox="0 0 22 22">
    <g fill="none" fill-rule="evenodd">
        <g fill="#22232D" fill-rule="nonzero">
            <g>
                <path d="M11 0C4.926 0 0 5.05 0 11.278c0 4.983 3.151 9.21 7.523 10.702.55.104.727-.245.727-.542v-2.1c-3.06.682-3.697-1.33-3.697-1.33-.5-1.304-1.222-1.651-1.222-1.651-.998-.7.076-.685.076-.685 1.105.079 1.686 1.162 1.686 1.162.98 1.724 2.573 1.226 3.201.937.098-.728.383-1.226.698-1.507-2.442-.287-5.01-1.254-5.01-5.574 0-1.232.429-2.238 1.132-3.027-.114-.285-.49-1.433.107-2.985 0 0 .924-.303 3.026 1.156.877-.25 1.818-.375 2.753-.38.935.005 1.876.13 2.755.38 2.1-1.459 3.023-1.156 3.023-1.156.598 1.553.222 2.7.108 2.985.706.789 1.132 1.796 1.132 3.027 0 4.331-2.573 5.285-5.022 5.565.394.35.754 1.035.754 2.088v3.095c0 .3.176.652.734.541C18.852 20.486 22 16.26 22 11.28 22 5.048 17.075 0 11 0z" transform="translate(-1401 -6559) translate(1401 6559)"/>
            </g>
        </g>
    </g>
</svg>
