<svg xmlns="http://www.w3.org/2000/svg" width="22" height="15" viewBox="0 0 22 15">
    <g fill="none" fill-rule="evenodd">
        <g fill="#22232D" fill-rule="nonzero">
            <g>
                <path d="M21.142 1.288C20.348.373 18.882 0 16.082 0H5.918C3.054 0 1.562.397.77 1.37 0 2.32 0 3.72 0 5.656v3.69C0 13.095.915 15 5.918 15h10.164c2.428 0 3.774-.33 4.644-1.136.893-.828 1.274-2.18 1.274-4.519v-3.69c0-2.042-.06-3.449-.858-4.367zm-7.018 6.721l-4.616 2.338c-.103.052-.216.078-.328.078-.128 0-.255-.034-.368-.1-.212-.124-.342-.347-.342-.588V5.078c0-.24.13-.463.341-.588.212-.124.476-.133.696-.022l4.615 2.322c.235.118.383.353.383.61 0 .256-.146.49-.38.61z" transform="translate(-1549 -6563) translate(1549 6563)"/>
            </g>
        </g>
    </g>
</svg>
